<svg width="340" height="160" viewBox="110 145 340 150" version="1.1" xmlns="http://www.w3.org/2000/svg">
	<ellipse stroke="black" stroke-width="1" fill="none" cx="213.5" cy="228.5" rx="30" ry="30"/>
	<text x="213.5" y="234.5" text-anchor="middle" font-family="Times New Roman" font-size="20">T</text>
	
	<ellipse stroke="black" stroke-width="1" fill="none" cx="354.5" cy="228.5" rx="30" ry="30"/>
	<text x="354.5" y="234.5" text-anchor="middle" font-family="Times New Roman" font-size="20">H</text>
	
	<path stroke="black" stroke-width="1" fill="none" d="M 186.703,241.725 A 22.5,22.5 0 1 1 186.703,215.275"/>
	<text x="135.5" y="234.5" text-anchor="middle" font-family="Times New Roman" font-size="20">e&#8324;</text>
	<polygon fill="black" stroke-width="1" points="186.703,215.275 183.17,206.527 177.292,214.618"/>
	
	<path stroke="black" stroke-width="1" fill="none" d="M 335.671,251.631 A 80.164,80.164 0 0 1 232.329,251.631"/>
	<polygon fill="black" stroke-width="1" points="232.329,251.631 235.222,260.61 241.668,252.965"/>
	<text x="284.5" y="291.5" text-anchor="middle" font-family="Times New Roman" font-size="20">e&#8323;</text>
	
	<path stroke="black" stroke-width="1" fill="none" d="M 231.892,205.026 A 79.294,79.294 0 0 1 336.108,205.026"/>
	<polygon fill="black" stroke-width="1" points="336.108,205.026 333.364,195.999 326.792,203.537"/>
	<text x="284.5" y="176.5" text-anchor="middle" font-family="Times New Roman" font-size="20">e&#8321;</text>
	
	<path stroke="black" stroke-width="1" fill="none" d="M 381.297,215.275 A 22.5,22.5 0 1 1 381.297,241.725"/>
	<text x="432.5" y="234.5" text-anchor="middle" font-family="Times New Roman" font-size="20">e&#8322;</text>
	<polygon fill="black" stroke-width="1" points="381.297,241.725 384.83,250.473 390.708,242.382"/>
</svg>
